<svg width="19" height="19" viewBox="0 0 19 19" fill="none" xmlns="http://www.w3.org/2000/svg">
<path d="M1.45874 8.67578H7.45874C8.01074 8.67578 8.45874 8.22778 8.45874 7.67578V1.67578C8.45874 1.12378 8.01074 0.675781 7.45874 0.675781H1.45874C0.90674 0.675781 0.45874 1.12378 0.45874 1.67578V7.67578C0.45874 8.22778 0.90674 8.67578 1.45874 8.67578ZM11.4587 8.67578H17.4587C18.0117 8.67578 18.4587 8.22778 18.4587 7.67578V1.67578C18.4587 1.12378 18.0117 0.675781 17.4587 0.675781H11.4587C10.9057 0.675781 10.4587 1.12378 10.4587 1.67578V7.67578C10.4587 8.22778 10.9057 8.67578 11.4587 8.67578ZM1.45874 18.6758H7.45874C8.01074 18.6758 8.45874 18.2278 8.45874 17.6758V11.6758C8.45874 11.1238 8.01074 10.6758 7.45874 10.6758H1.45874C0.90674 10.6758 0.45874 11.1238 0.45874 11.6758V17.6758C0.45874 18.2278 0.90674 18.6758 1.45874 18.6758ZM11.4587 18.6758H17.4587C18.0117 18.6758 18.4587 18.2278 18.4587 17.6758V11.6758C18.4587 11.1238 18.0117 10.6758 17.4587 10.6758H11.4587C10.9057 10.6758 10.4587 11.1238 10.4587 11.6758V17.6758C10.4587 18.2278 10.9057 18.6758 11.4587 18.6758Z" fill="white" fill-opacity="0.3"/>
</svg>
